<svg width="118" height="113" viewBox="0 0 118 113" fill="none" xmlns="http://www.w3.org/2000/svg">
<path opacity="0.1" d="M28.7499 112.5C24.9358 112.5 21.6907 111.162 19.0144 108.485C16.3381 105.809 15 102.564 15 98.7499C15 94.9358 16.3381 91.6907 19.0144 89.0144C21.6907 86.3381 24.9358 85 28.7499 85C29.8204 85 30.8717 85.133 31.9037 85.399C32.9358 85.6651 33.9102 86.0224 34.8268 86.4712L44.7405 74.1344C42.6636 71.8716 41.2309 69.3395 40.4425 66.5383C39.654 63.737 39.4938 60.9198 39.9617 58.0865L25.5575 53.3171C24.3011 55.3364 22.6457 56.955 20.5912 58.1729C18.5367 59.3908 16.2563 59.9998 13.7499 59.9998C9.93583 59.9998 6.69066 58.6617 4.0144 55.9854C1.33813 53.3092 0 50.064 0 46.2499C0 42.4358 1.33813 39.1907 4.0144 36.5144C6.69066 33.8381 9.93583 32.5 13.7499 32.5C17.564 32.5 20.8092 33.8381 23.4854 36.5144C26.1617 39.1907 27.4998 42.4358 27.4998 46.2499C27.4998 46.5448 27.4918 46.7916 27.4758 46.9903C27.4597 47.189 27.4517 47.3878 27.4517 47.5865L41.8078 52.577C43.186 50.0257 45.0786 47.8366 47.4856 46.0097C49.8927 44.1828 52.6538 43.0098 55.7692 42.4905V27.1441C52.5513 26.3877 49.9519 24.7611 47.9711 22.2643C45.9904 19.7675 45 16.9294 45 13.7499C45 9.93583 46.3381 6.69066 49.0144 4.0144C51.6907 1.33813 54.9358 0 58.7499 0C62.564 0 65.8092 1.33813 68.4854 4.0144C71.1617 6.69066 72.4998 9.93583 72.4998 13.7499C72.4998 16.9294 71.4966 19.7675 69.4902 22.2643C67.4838 24.7611 64.8973 26.3877 61.7306 27.1441V42.4905C64.846 43.0098 67.5992 44.1828 69.9902 46.0097C72.3811 47.8366 74.2818 50.0257 75.692 52.577L90.0481 47.5865C90.016 47.3557 90 47.149 90 46.9663C90 46.7836 90 46.5448 90 46.2499C90 42.4358 91.3381 39.1907 94.0144 36.5144C96.6907 33.8381 99.9358 32.5 103.75 32.5C107.564 32.5 110.809 33.8381 113.485 36.5144C116.162 39.1907 117.5 42.4358 117.5 46.2499C117.5 50.064 116.162 53.3092 113.485 55.9854C110.809 58.6617 107.564 59.9998 103.75 59.9998C101.244 59.9998 98.9502 59.3908 96.8701 58.1729C94.79 56.955 93.1474 55.3364 91.9423 53.3171L77.5381 58.0865C78.0061 60.9198 77.8458 63.7242 77.0574 66.4998C76.2689 69.2755 74.8362 71.8043 72.7593 74.0863L82.673 86.3462C83.5897 85.9295 84.564 85.601 85.5961 85.3606C86.6281 85.1202 87.6794 85 88.7499 85C92.564 85 95.8092 86.3381 98.4854 89.0144C101.162 91.6907 102.5 94.9358 102.5 98.7499C102.5 102.564 101.162 105.809 98.4854 108.485C95.8092 111.162 92.564 112.5 88.7499 112.5C84.9358 112.5 81.6907 111.162 79.0144 108.485C76.3381 105.809 75 102.564 75 98.7499C75 97.1794 75.2548 95.6634 75.7644 94.2019C76.274 92.7403 77.0353 91.4006 78.0481 90.1826L68.1344 77.7497C65.2947 79.442 62.1617 80.2881 58.7355 80.2881C55.3092 80.2881 52.1602 79.442 49.2885 77.7497L39.4517 90.1826C40.4325 91.4006 41.1857 92.7403 41.7114 94.2019C42.237 95.6634 42.4998 97.1794 42.4998 98.7499C42.4998 102.564 41.1617 105.809 38.4854 108.485C35.8092 111.162 32.564 112.5 28.7499 112.5ZM13.7499 52.5C15.4871 52.5 16.9631 51.8926 18.1779 50.6779C19.3926 49.4631 20 47.9871 20 46.2499C20 44.5127 19.3926 43.0367 18.1779 41.822C16.9631 40.6072 15.4871 39.9998 13.7499 39.9998C12.0127 39.9998 10.5367 40.6072 9.32196 41.822C8.1072 43.0367 7.49982 44.5127 7.49982 46.2499C7.49982 47.9871 8.1072 49.4631 9.32196 50.6779C10.5367 51.8926 12.0127 52.5 13.7499 52.5ZM28.7499 105C30.4871 105 31.9631 104.393 33.1779 103.178C34.3926 101.963 35 100.487 35 98.7499C35 97.0127 34.3926 95.5367 33.1779 94.322C31.9631 93.1072 30.4871 92.4998 28.7499 92.4998C27.0127 92.4998 25.5367 93.1072 24.322 94.322C23.1072 95.5367 22.4998 97.0127 22.4998 98.7499C22.4998 100.487 23.1072 101.963 24.322 103.178C25.5367 104.393 27.0127 105 28.7499 105ZM58.7499 20C60.4871 20 61.9631 19.3926 63.1779 18.1779C64.3926 16.9631 65 15.4871 65 13.7499C65 12.0127 64.3926 10.5367 63.1779 9.32196C61.9631 8.1072 60.4871 7.49982 58.7499 7.49982C57.0127 7.49982 55.5367 8.1072 54.322 9.32196C53.1072 10.5367 52.4998 12.0127 52.4998 13.7499C52.4998 15.4871 53.1072 16.9631 54.322 18.1779C55.5367 19.3926 57.0127 20 58.7499 20ZM58.7499 72.7883C61.9614 72.7883 64.6874 71.6681 66.9277 69.4277C69.1681 67.1874 70.2883 64.4614 70.2883 61.2499C70.2883 58.0384 69.1681 55.3124 66.9277 53.0721C64.6874 50.8317 61.9614 49.7115 58.7499 49.7115C55.5384 49.7115 52.8124 50.8317 50.5721 53.0721C48.3317 55.3124 47.2115 58.0384 47.2115 61.2499C47.2115 64.4614 48.3317 67.1874 50.5721 69.4277C52.8124 71.6681 55.5384 72.7883 58.7499 72.7883ZM88.7499 105C90.4871 105 91.9631 104.393 93.1779 103.178C94.3926 101.963 95 100.487 95 98.7499C95 97.0127 94.3926 95.5367 93.1779 94.322C91.9631 93.1072 90.4871 92.4998 88.7499 92.4998C87.0127 92.4998 85.5367 93.1072 84.322 94.322C83.1072 95.5367 82.4998 97.0127 82.4998 98.7499C82.4998 100.487 83.1072 101.963 84.322 103.178C85.5367 104.393 87.0127 105 88.7499 105ZM103.75 52.5C105.487 52.5 106.963 51.8926 108.178 50.6779C109.393 49.4631 110 47.9871 110 46.2499C110 44.5127 109.393 43.0367 108.178 41.822C106.963 40.6072 105.487 39.9998 103.75 39.9998C102.013 39.9998 100.537 40.6072 99.322 41.822C98.1072 43.0367 97.4998 44.5127 97.4998 46.2499C97.4998 47.9871 98.1072 49.4631 99.322 50.6779C100.537 51.8926 102.013 52.5 103.75 52.5Z" fill="white"/>
</svg>
