<svg width="29" height="23" viewBox="0 0 29 23" fill="none" xmlns="http://www.w3.org/2000/svg">
<path d="M2.71152 22.4999C1.95383 22.4999 1.31249 22.2374 0.787493 21.7124C0.262498 21.1874 0 20.5461 0 19.7884V15.9519H2.24995V19.7884C2.24995 19.9038 2.29803 20.0095 2.39419 20.1057C2.49035 20.2019 2.59612 20.2499 2.71152 20.2499H25.7884C25.9038 20.2499 26.0095 20.2019 26.1057 20.1057C26.2019 20.0095 26.2499 19.9038 26.2499 19.7884V2.71152C26.2499 2.59612 26.2019 2.49035 26.1057 2.39419C26.0095 2.29803 25.9038 2.24995 25.7884 2.24995H2.71152C2.59612 2.24995 2.49035 2.29803 2.39419 2.39419C2.29803 2.49035 2.24995 2.59612 2.24995 2.71152V6.54801H0V2.71152C0 1.95383 0.262498 1.31249 0.787493 0.787493C1.31249 0.262498 1.95383 0 2.71152 0H25.7884C26.5461 0 27.1874 0.262498 27.7124 0.787493C28.2374 1.31249 28.4999 1.95383 28.4999 2.71152V19.7884C28.4999 20.5461 28.2374 21.1874 27.7124 21.7124C27.1874 22.2374 26.5461 22.4999 25.7884 22.4999H2.71152ZM13.7884 17.1922L12.2077 15.5653L15.4212 12.3749H0V10.125H15.4212L12.2077 6.93458L13.7884 5.3077L19.7307 11.2499L13.7884 17.1922Z" fill="#9FA7FF"/>
</svg>
