<svg width="19" height="15" viewBox="0 0 19 15" fill="none" xmlns="http://www.w3.org/2000/svg">
<path d="M8.10382 10.8461C8.45895 11.2012 8.91631 11.3698 9.47592 11.3519C10.0355 11.3339 10.4461 11.132 10.7076 10.7461L16.1346 2.88461L8.25382 8.29228C7.86152 8.55382 7.64966 8.95606 7.61825 9.499C7.58684 10.0419 7.7487 10.491 8.10382 10.8461ZM9.49996 0C10.4512 0 11.3426 0.124679 12.174 0.374036C13.0054 0.623393 13.8083 1.00063 14.5826 1.50576L13.1731 2.41728C12.6038 2.11471 12.0138 1.88618 11.4029 1.7317C10.792 1.57721 10.1577 1.49996 9.49996 1.49996C7.2833 1.49996 5.3958 2.27913 3.83746 3.83746C2.27913 5.3958 1.49996 7.2833 1.49996 9.49996C1.49996 10.2 1.5958 10.8916 1.78746 11.575C1.97913 12.2583 2.24996 12.9 2.59996 13.5H16.4C16.7833 12.8666 17.0625 12.2083 17.2375 11.525C17.4125 10.8416 17.5 10.1333 17.5 9.39996C17.5 8.79996 17.4259 8.19259 17.2778 7.57784C17.1298 6.9631 16.9012 6.37944 16.5923 5.82687L17.5038 4.41729C17.9974 5.22627 18.3676 6.03556 18.6144 6.84517C18.8611 7.65478 18.9897 8.49612 18.9999 9.3692C19.0102 10.2743 18.9083 11.1298 18.6942 11.9355C18.4801 12.7413 18.1576 13.5294 17.7269 14.2999C17.5948 14.5166 17.4089 14.6874 17.1692 14.8124C16.9294 14.9374 16.673 14.9999 16.4 14.9999H2.59996C2.3333 14.9999 2.08171 14.9358 1.84517 14.8076C1.60864 14.6794 1.41794 14.4974 1.27307 14.2615C0.891024 13.5948 0.583333 12.8679 0.35 12.0807C0.116667 11.2936 0 10.4333 0 9.49996C0 8.19356 0.248076 6.96504 0.744228 5.8144C1.24038 4.66376 1.91698 3.65672 2.77403 2.79326C3.63107 1.9298 4.63908 1.24839 5.79805 0.749036C6.95702 0.249679 8.19099 0 9.49996 0Z" fill="#ADAAAA"/>
</svg>
